<?xml version="1.0" standalone="no"?>
<!DOCTYPE svg PUBLIC "-//W3C//DTD SVG 20010904//EN"
 "http://www.w3.org/TR/2001/REC-SVG-20010904/DTD/svg10.dtd">
<svg version="1.0" xmlns="http://www.w3.org/2000/svg"
 width="295.000000pt" height="316.000000pt" viewBox="0 0 295.000000 316.000000"
 preserveAspectRatio="xMidYMid meet">

<g transform="translate(0.000000,316.000000) scale(0.100000,-0.100000)"
fill="#000000" stroke="none">
<path d="M1678 3080 c-167 -20 -277 -93 -348 -230 -28 -54 -49 -185 -50 -306
0 -115 1 -121 24 -142 l25 -21 4 82 c13 209 27 328 42 361 25 53 119 92 289
121 150 25 375 15 461 -21 20 -8 35 -10 35 -4 0 13 -84 89 -129 117 -63 39
-226 58 -353 43z"/>
<path d="M1645 2671 c-55 -3 -106 -10 -113 -14 -14 -9 -62 -82 -62 -94 0 -4
14 6 30 22 29 28 36 30 151 35 124 7 153 16 129 45 -7 8 -18 14 -24 13 -6 -1
-56 -4 -111 -7z"/>
<path d="M1938 2662 c-23 -27 9 -37 123 -37 l109 0 25 -30 c33 -41 33 -11 0
38 -29 42 -20 40 -148 41 -70 1 -101 -2 -109 -12z"/>
<path d="M2011 2501 c-32 -30 -43 -54 -14 -30 14 11 15 11 9 1 -5 -8 -3 -24 5
-38 10 -20 20 -24 61 -24 45 0 48 2 48 25 0 14 -9 34 -20 45 -24 24 -19 25 19
6 15 -8 36 -26 45 -40 15 -24 46 -36 46 -18 0 15 -50 76 -73 89 -40 22 -92 16
-126 -16z"/>
<path d="M1594 2496 c-33 -15 -101 -93 -89 -104 4 -4 19 8 34 26 25 30 50 45
36 22 -10 -16 21 -40 52 -40 72 0 91 22 51 60 -12 11 -16 20 -9 20 18 0 54
-21 68 -39 9 -12 12 -12 13 -3 0 8 -13 27 -29 43 -33 33 -75 37 -127 15z"/>
<path d="M1320 2345 c0 -5 5 -17 10 -25 5 -8 10 -10 10 -5 0 6 -5 17 -10 25
-5 8 -10 11 -10 5z"/>
<path d="M2000 2217 c-3 -3 -17 -8 -30 -11 -14 -2 -43 -11 -64 -18 l-39 -14
23 -22 c13 -12 30 -22 37 -22 22 0 15 -17 -9 -24 -13 -3 -68 -6 -123 -6 l-100
-1 35 -16 c27 -13 63 -17 163 -16 117 2 128 0 122 -15 -3 -9 6 -3 19 13 14 17
25 35 26 42 0 7 10 18 22 24 13 7 29 19 37 27 13 12 4 13 -65 7 -71 -5 -77 -5
-61 9 10 8 17 22 15 31 -1 9 -5 14 -8 12z"/>
<path d="M1786 2191 c-7 -10 33 -23 47 -14 10 6 -11 23 -30 23 -6 0 -14 -4
-17 -9z"/>
<path d="M1565 2154 c-11 -17 -12 -25 -4 -22 6 2 16 14 20 26 11 29 5 28 -16
-4z"/>
<path d="M1646 2105 c4 -8 11 -15 16 -15 6 0 5 6 -2 15 -7 8 -14 15 -16 15 -2
0 -1 -7 2 -15z"/>
<path d="M2164 2061 c-4 -17 -13 -36 -20 -42 -11 -9 -14 -6 -14 17 l-1 29 -14
-33 c-8 -18 -21 -40 -30 -48 -8 -9 -18 -26 -21 -40 -3 -13 -13 -24 -21 -24 -8
0 -25 -13 -39 -29 -13 -16 -35 -32 -49 -35 -14 -4 -25 -13 -25 -21 0 -8 -7
-15 -15 -15 -23 0 -65 -22 -65 -35 0 -17 -45 -35 -90 -35 -22 0 -40 -4 -40 -9
0 -19 99 -51 159 -51 l61 0 75 76 c41 42 75 82 75 89 0 7 4 15 8 17 5 2 30 32
56 67 40 55 47 70 44 104 -4 50 -26 61 -34 18z"/>
<path d="M1985 2030 c-3 -5 -1 -10 4 -10 6 0 11 5 11 10 0 6 -2 10 -4 10 -3 0
-8 -4 -11 -10z"/>
<path d="M1945 2000 c-16 -7 -17 -9 -3 -9 9 -1 20 4 23 9 7 11 7 11 -20 0z"/>
<path d="M1949 1943 c-1 -5 -1 -11 0 -15 1 -7 -28 -13 -86 -20 -43 -5 -9 -29
43 -29 73 -1 84 1 84 16 0 7 3 21 7 31 5 14 2 16 -21 10 -18 -4 -25 -3 -21 4
3 5 4 10 1 10 -3 0 -7 -3 -7 -7z"/>
<path d="M1198 1639 c-7 -5 -41 -9 -74 -9 -42 0 -65 -5 -74 -15 -7 -8 -18 -15
-26 -15 -22 0 -174 -143 -174 -165 0 -22 -52 -65 -78 -65 -25 -1 -26 -1 -7
-11 73 -40 99 -66 126 -127 32 -70 35 -117 15 -175 -8 -20 -11 -39 -7 -41 14
-8 242 -17 290 -10 39 5 64 16 94 41 40 33 90 110 81 124 -2 4 3 13 12 20 8 7
38 51 66 98 49 82 50 89 57 183 3 54 3 99 -1 99 -11 2 -20 5 -38 11 -141 53
-236 73 -262 57z"/>
<path d="M1965 1540 c-3 -11 -20 -31 -36 -45 -25 -20 -41 -25 -87 -25 -31 1
-74 7 -94 14 -21 8 -35 10 -32 5 8 -14 -28 -10 -56 6 -41 23 -50 19 -39 -17
13 -45 13 -115 1 -163 -20 -78 -34 -146 -31 -149 6 -5 167 -16 236 -16 70 0
93 -15 93 -59 0 -48 -26 -61 -123 -61 -47 0 -89 -4 -92 -10 -7 -12 74 -12 155
-1 37 6 57 5 62 -3 11 -16 10 -74 -2 -81 -5 -3 -10 -28 -10 -54 0 -38 -5 -52
-25 -71 -14 -13 -25 -32 -25 -42 0 -10 -7 -18 -15 -18 -8 0 -15 -5 -15 -11 0
-5 6 -7 13 -3 7 4 9 3 4 -2 -5 -5 -12 -9 -16 -9 -4 0 -19 -13 -34 -29 -15 -16
-27 -23 -27 -16 0 9 -3 10 -13 2 -7 -6 -28 -12 -45 -14 -18 -1 -32 -7 -32 -13
0 -6 -14 -19 -31 -29 -36 -21 -88 -18 -279 21 -104 20 -141 23 -216 18 -50 -4
-96 -10 -103 -15 -13 -8 -6 -20 44 -76 11 -12 35 -50 54 -85 18 -35 42 -79 53
-96 l20 -33 587 0 588 0 7 46 c3 26 6 79 6 118 0 82 5 92 45 102 59 14 134 53
149 77 14 20 15 35 6 98 -6 40 -15 147 -20 238 -8 149 -12 172 -40 242 -47
116 -94 159 -218 198 -54 17 -140 35 -193 40 -53 5 -112 16 -132 24 -34 15
-36 14 -42 -3z m-225 -895 c0 -9 -64 -45 -79 -45 -8 0 6 11 30 24 51 28 49 28
49 21z"/>
<path d="M1570 1269 c0 -5 5 -7 10 -4 6 3 10 8 10 11 0 2 -4 4 -10 4 -5 0 -10
-5 -10 -11z"/>
<path d="M1560 1215 c0 -14 2 -25 4 -25 2 0 6 11 8 25 3 14 1 25 -3 25 -5 0
-9 -11 -9 -25z"/>
<path d="M1865 924 c-43 -9 -156 -46 -153 -50 6 -6 171 37 183 47 10 10 5 10
-30 3z"/>
<path d="M1844 815 c-10 -8 -26 -15 -34 -15 -8 0 -26 -6 -40 -13 -14 -7 -46
-21 -72 -31 -45 -16 -48 -20 -48 -52 0 -21 4 -33 10 -29 6 3 10 11 10 16 0 23
49 59 115 84 39 15 77 34 85 41 19 19 -1 18 -26 -1z"/>
<path d="M895 628 c-16 -6 -52 -14 -80 -18 l-50 -7 45 -1 c25 -1 72 7 105 17
35 11 49 19 35 19 -14 0 -38 -4 -55 -10z"/>
<path d="M981 624 c0 -11 3 -14 6 -6 3 7 2 16 -1 19 -3 4 -6 -2 -5 -13z"/>
</g>
</svg>
